<?xml version="1.0" encoding="UTF-8" standalone="no"?>
<!DOCTYPE svg PUBLIC "-//W3C//DTD SVG 1.1//EN"
 "http://www.w3.org/Graphics/SVG/1.1/DTD/svg11.dtd">
<!-- Generated by graphviz version 2.44.0 (0)
 -->
<!-- Title: Schéma de notre base de données Pages: 1 -->
<svg width="400pt" height="224pt"
 viewBox="0.00 0.00 400.00 224.00" xmlns="http://www.w3.org/2000/svg" xmlns:xlink="http://www.w3.org/1999/xlink">
<g id="graph0" class="graph" transform="scale(1 1) rotate(0) translate(4 220)">
<title>Schéma de notre base de données</title>
<polygon fill="white" stroke="transparent" points="-4,4 -4,-220 396,-220 396,4 -4,4"/>
<g id="clust1" class="cluster">
<title>cluster_users</title>
<polygon fill="none" stroke="black" points="8,-45 8,-208 168,-208 168,-45 8,-45"/>
</g>
<g id="clust2" class="cluster">
<title>cluster_profiles</title>
<polygon fill="none" stroke="black" points="224,-8 224,-134 384,-134 384,-8 224,-8"/>
</g>
<!-- users -->
<g id="node1" class="node">
<title>users</title>
<g id="a_node1"><a xlink:title="Contient les utilisateurs.">
<polygon fill="none" stroke="black" points="160,-200 16,-200 16,-164 160,-164 160,-200"/>
<text text-anchor="start" x="65" y="-179.9" font-family="Times-Roman" font-size="12.00"> </text>
<text text-anchor="start" x="69" y="-179.9" font-family="Times-Roman" font-weight="bold" font-size="12.00">users</text>
<text text-anchor="start" x="107" y="-179.9" font-family="Times-Roman" font-size="12.00"> </text>
</a>
</g>
</g>
<!-- users.id -->
<g id="node2" class="node">
<title>users.id</title>
<text text-anchor="middle" x="88" y="-141.9" font-family="Times-Roman" font-size="12.00">id</text>
</g>
<!-- users.name -->
<g id="node3" class="node">
<title>users.name</title>
<text text-anchor="middle" x="88" y="-104.9" font-family="Times-Roman" font-size="12.00">name</text>
</g>
<!-- users.profile_id -->
<g id="node4" class="node">
<title>users.profile_id</title>
<g id="a_node4"><a xlink:title="Clé étrangère vers la table profiles">
<text text-anchor="middle" x="88" y="-67.9" font-family="Times-Roman" font-size="12.00">profile_id</text>
</a>
</g>
</g>
<!-- profiles.id -->
<g id="node6" class="node">
<title>profiles.id</title>
<text text-anchor="middle" x="304" y="-67.9" font-family="Times-Roman" font-size="12.00">id</text>
</g>
<!-- users.profile_id&#45;&gt;profiles.id -->
<g id="edge1" class="edge">
<title>users.profile_id&#45;&gt;profiles.id</title>
<path fill="none" stroke="black" d="M123.67,-71C123.67,-71 266.84,-71 266.84,-71"/>
<polygon fill="black" stroke="black" points="266.84,-74.5 276.84,-71 266.84,-67.5 266.84,-74.5"/>
</g>
<!-- profiles -->
<g id="node5" class="node">
<title>profiles</title>
<g id="a_node5"><a xlink:title="Contient les profils.">
<polygon fill="none" stroke="black" points="376,-126 232,-126 232,-90 376,-90 376,-126"/>
<text text-anchor="start" x="274" y="-105.9" font-family="Times-Roman" font-size="12.00"> </text>
<text text-anchor="start" x="278" y="-105.9" font-family="Times-Roman" font-weight="bold" font-size="12.00">profiles</text>
<text text-anchor="start" x="330" y="-105.9" font-family="Times-Roman" font-size="12.00"> </text>
</a>
</g>
</g>
<!-- profiles.profile -->
<g id="node7" class="node">
<title>profiles.profile</title>
<text text-anchor="middle" x="304" y="-30.9" font-family="Times-Roman" font-size="12.00">profile</text>
</g>
</g>
</svg>
